<svg xmlns="http://www.w3.org/2000/svg" version="1.1" xmlns:xlink="http://www.w3.org/1999/xlink" xmlns:svgjs="http://svgjs.dev/svgjs" width="1500" height="935" viewBox="0 0 1500 935"><g transform="matrix(1,0,0,1,-0.9090909090909918,0.3785425101214628)"><svg viewBox="0 0 396 247" data-background-color="#ffffff" preserveAspectRatio="xMidYMid meet" height="935" width="1500" xmlns="http://www.w3.org/2000/svg" xmlns:xlink="http://www.w3.org/1999/xlink"><g id="tight-bounds" transform="matrix(1,0,0,1,0.2400000000000091,-0.09999999999999432)"><svg viewBox="0 0 395.52 247.2" height="247.2" width="395.52"><g><svg></svg></g><g><svg viewBox="0 0 395.52 247.2" height="247.2" width="395.52"><mask id="adce3921-e32d-4ee5-8389-986fb1528165"><rect width="640" height="400" fill="white"></rect><g transform="matrix(1,0,0,1,39.55200000000002,82.21949078445675)"><svg viewBox="0 0 316.41599999999994 82.7610184310865" height="82.7610184310865" width="316.41599999999994"><g><svg viewBox="0 0 316.41599999999994 82.7610184310865" height="82.7610184310865" width="316.41599999999994"><g><svg viewBox="0 0 316.41599999999994 82.7610184310865" height="82.7610184310865" width="316.41599999999994"><g><svg viewBox="0 0 316.41599999999994 82.7610184310865" height="82.7610184310865" width="316.41599999999994"><g id="SvgjsG1050"><svg viewBox="0 0 316.41599999999994 82.7610184310865" height="82.7610184310865" width="316.41599999999994" id="SvgjsSvg1049"><g><svg viewBox="0 0 316.41599999999994 82.7610184310865" height="82.7610184310865" width="316.41599999999994"><g transform="matrix(1,0,0,1,0,0)"><svg width="316.41599999999994" viewBox="-3.76 -38.81 290.08515151515144 76.61612901440802" height="82.7610184310865" data-palette-color="#332885"><path d="M6.54-1.22L6.54-1.22Q6.54-2.34 7.03-3.59 7.52-4.83 7.91-5.71L7.91-5.71Q8.25-6.4 8.98-7.84 9.72-9.28 10.64-11.08 11.57-12.89 12.62-14.89 13.67-16.89 14.6-18.7 15.53-20.51 16.28-21.95 17.04-23.39 17.38-24.07L17.38-24.07Q17.43-24.12 17.6-24.41 17.77-24.71 17.99-25 18.21-25.29 18.41-25.56 18.6-25.83 18.65-25.93L18.65-25.93Q18.7-26.03 18.6-26.12 18.51-26.22 18.51-26.32L18.51-26.32Q16.41-26.07 14.14-25.68 11.87-25.29 9.64-24.78 7.42-24.27 5.37-23.61 3.32-22.95 1.66-22.12L1.66-22.12Q1.12-22.12 0.68-22.31 0.24-22.51 0.24-23.1L0.24-23.1 0.24-23.24Q0.24-23.29 0.29-23.39L0.29-23.39Q0.39-23.63 0.61-24.15 0.83-24.66 0.93-24.71L0.93-24.71 5.37-26.61 35.11-34.18Q35.64-32.81 35.03-32.01 34.42-31.2 33.11-30.69 31.79-30.18 30.05-29.81 28.32-29.44 26.59-28.93 24.85-28.42 23.39-27.56 21.92-26.71 21.19-25.29L21.19-25.29Q18.02-18.99 14.67-12.74 11.33-6.49 8.54 0L8.54 0Q8.5 0 8.37 0.02 8.25 0.05 8.2 0.05L8.2 0.05Q7.57 0.05 7.06-0.24 6.54-0.54 6.54-1.22ZM25.19-3.17L25.19-3.17Q25.63-5.96 26.85-8.3 28.07-10.64 29.66-12.38 31.25-14.11 33.1-15.23 34.96-16.36 36.72-16.67 38.47-16.99 39.96-16.5 41.45-16.02 42.38-14.55L42.38-14.55Q42.38-13.43 41.87-12.4 41.35-11.38 40.74-10.35 40.13-9.33 39.62-8.25 39.11-7.18 39.11-5.96L39.11-5.96Q39.11-4.69 39.67-3.93 40.23-3.17 41.65-3.17L41.65-3.17Q42.82-3.17 43.92-3.52 45.02-3.86 46.14-3.86L46.14-3.86Q46.34-3.86 46.8-3.83 47.26-3.81 47.41-3.81L47.41-3.81Q46.82-2.98 45.9-2.39 44.97-1.81 43.94-1.39 42.92-0.98 41.82-0.78 40.72-0.59 39.79-0.59L39.79-0.59Q38.91-0.59 38.23-0.98 37.55-1.37 37.06-2 36.57-2.64 36.3-3.44 36.03-4.25 36.03-5.03L36.03-5.03Q35.3-4.2 34.45-3.3 33.59-2.39 32.64-1.66 31.69-0.93 30.59-0.44 29.49 0.05 28.32 0.05L28.32 0.05Q27.05 0.05 26.12-0.9 25.19-1.86 25.19-3.17ZM28.42-4.69L28.42-4.69Q28.42-4.3 28.44-3.81 28.46-3.32 29.05-3.17L29.05-3.17Q30.27-3.47 31.83-4.47 33.4-5.47 34.76-6.81 36.13-8.15 37.06-9.69 37.99-11.23 37.99-12.65L37.99-12.65Q37.99-12.74 37.96-12.96 37.94-13.18 37.94-13.28L37.94-13.28Q36.28-13.28 34.57-12.6 32.86-11.91 31.49-10.72 30.12-9.52 29.27-7.96 28.42-6.4 28.42-4.69ZM45.65-3.17L45.65-3.17Q45.65-3.86 45.8-4.37 45.94-4.88 46.33-5.71L46.33-5.71Q46.67-6.2 47.58-7.57 48.48-8.94 49.48-10.45 50.48-11.96 51.39-13.31 52.29-14.65 52.63-15.19L52.63-15.19Q53.07-15.82 53.32-15.87 53.56-15.92 54.24-15.92L54.24-15.92Q54.68-15.92 55.2-15.87 55.71-15.82 55.85-15.19L55.85-15.19Q55.17-13.53 54.02-12.04 52.88-10.55 51.78-9.08 50.68-7.62 49.85-6.08 49.02-4.54 49.02-2.78L49.02-2.78Q49.21-2.78 49.63-2.73 50.04-2.69 50.53-2.64 51.02-2.59 51.44-2.54 51.85-2.49 52.05-2.54L52.05-2.54Q52.34-2.59 53.05-2.76 53.75-2.93 54.56-3.13 55.37-3.32 56.1-3.52 56.83-3.71 57.12-3.81L57.12-3.81Q57.12-3.71 57.15-3.49 57.17-3.27 57.17-3.17L57.17-3.17Q57.17-2.2 56.27-1.56 55.37-0.93 54.17-0.56 52.97-0.2 51.73-0.07 50.48 0.05 49.8 0.05L49.8 0.05Q49.07 0.05 48.31-0.12 47.55-0.29 46.97-0.68 46.38-1.07 46.02-1.68 45.65-2.29 45.65-3.17ZM59.86-31.79L59.86-31.79Q60.49-31.79 61.03-31.74 61.57-31.69 61.96-31.49 62.35-31.3 62.59-30.91 62.84-30.52 62.84-29.83L62.84-29.83Q62.84-29.54 62.84-29.2 62.84-28.86 62.76-28.54 62.69-28.22 62.5-28 62.3-27.78 61.86-27.78L61.86-27.78Q61.18-27.78 60.76-28.27 60.35-28.76 60.15-29.42 59.96-30.08 59.91-30.76 59.86-31.45 59.86-31.79ZM57.76-2.54L57.76-2.54Q56.93-4.39 57.02-6.18 57.12-7.96 57.83-9.55 58.54-11.13 59.68-12.43 60.83-13.72 62.15-14.67 63.47-15.63 64.81-16.11 66.15-16.6 67.18-16.53 68.21-16.46 68.79-15.77 69.38-15.09 69.18-13.67L69.18-13.67Q69.18-11.77 67.99-10.35 66.79-8.94 65.35-7.81 63.91-6.69 62.71-5.79 61.52-4.88 61.52-4.1L61.52-4.1Q61.52-3.66 62.03-3.42 62.54-3.17 63.22-3.05 63.91-2.93 64.59-2.88 65.28-2.83 65.57-2.78L65.57-2.78Q70.16-3.76 72.45-3.98 74.75-4.2 75.33-3.93 75.92-3.66 75.11-3.1 74.31-2.54 72.65-1.93 70.99-1.32 68.79-0.83 66.59-0.34 64.45-0.27 62.3-0.2 60.47-0.68 58.64-1.17 57.76-2.54ZM66.3-13.67L66.3-13.67Q65.32-13.67 64.45-13.13 63.57-12.6 62.86-11.79 62.15-10.99 61.66-10.03 61.17-9.08 60.93-8.25L60.93-8.25Q61.03-8.2 61.08-8.2L61.08-8.2 61.22-8.2Q61.91-8.2 62.79-8.79 63.66-9.38 64.45-10.23 65.23-11.08 65.76-12.01 66.3-12.94 66.3-13.67ZM73.96-4.44L73.96-4.44Q73.96-5.08 74.28-5.88 74.6-6.69 75.28-6.93L75.28-6.93Q75.38-6.98 75.55-7.01 75.72-7.03 75.87-7.08L75.87-7.08Q76.06-7.13 76.21-7.13L76.21-7.13 76.21-4.44Q76.5-4.74 77.11-5.52 77.72-6.3 78.38-7.2 79.04-8.11 79.6-8.94 80.17-9.77 80.36-10.16L80.36-10.16 91.74-32.32Q91.74-32.32 92.01-32.62 92.28-32.91 92.64-33.03 93.01-33.15 93.45-32.91 93.89-32.67 94.28-31.64L94.28-31.64 87.34-17.68 87.34-17.09Q88.71-16.89 89.88-16.53 91.05-16.16 91.91-15.48 92.76-14.79 93.25-13.79 93.74-12.79 93.74-11.38L93.74-11.38Q93.74-8.98 92.49-6.91 91.25-4.83 89.3-3.3 87.34-1.76 84.98-0.85 82.61 0.05 80.41 0.05L80.41 0.05Q79.43 0.05 78.31-0.22 77.19-0.49 76.24-1.05 75.28-1.61 74.62-2.47 73.96-3.32 73.96-4.44ZM87.88-14.01L87.88-14.01Q87.2-14.01 86.39-13.38 85.59-12.74 84.8-11.74 84.02-10.74 83.29-9.5 82.56-8.25 82-7.03 81.44-5.81 81.09-4.74 80.75-3.66 80.75-3.03L80.75-3.03Q82.12-3.03 83.83-3.66 85.54-4.3 87.03-5.35 88.52-6.4 89.52-7.79 90.52-9.18 90.52-10.69L90.52-10.69Q90.52-12.01 89.98-13.01 89.44-14.01 87.88-14.01ZM121.42-3.17L121.42-3.17Q121.86-5.96 123.08-8.3 124.3-10.64 125.89-12.38 127.48-14.11 129.33-15.23 131.19-16.36 132.94-16.67 134.7-16.99 136.19-16.5 137.68-16.02 138.61-14.55L138.61-14.55Q138.61-13.43 138.1-12.4 137.58-11.38 136.97-10.35 136.36-9.33 135.85-8.25 135.34-7.18 135.34-5.96L135.34-5.96Q135.34-4.69 135.9-3.93 136.46-3.17 137.88-3.17L137.88-3.17Q139.05-3.17 140.15-3.52 141.24-3.86 142.37-3.86L142.37-3.86Q142.56-3.86 143.03-3.83 143.49-3.81 143.64-3.81L143.64-3.81Q143.05-2.98 142.12-2.39 141.2-1.81 140.17-1.39 139.15-0.98 138.05-0.78 136.95-0.59 136.02-0.59L136.02-0.59Q135.14-0.59 134.46-0.98 133.77-1.37 133.29-2 132.8-2.64 132.53-3.44 132.26-4.25 132.26-5.03L132.26-5.03Q131.53-4.2 130.67-3.3 129.82-2.39 128.87-1.66 127.91-0.93 126.82-0.44 125.72 0.05 124.55 0.05L124.55 0.05Q123.28 0.05 122.35-0.9 121.42-1.86 121.42-3.17ZM124.64-4.69L124.64-4.69Q124.64-4.3 124.67-3.81 124.69-3.32 125.28-3.17L125.28-3.17Q126.5-3.47 128.06-4.47 129.62-5.47 130.99-6.81 132.36-8.15 133.29-9.69 134.21-11.23 134.21-12.65L134.21-12.65Q134.21-12.74 134.19-12.96 134.16-13.18 134.16-13.28L134.16-13.28Q132.5-13.28 130.8-12.6 129.09-11.91 127.72-10.72 126.35-9.52 125.5-7.96 124.64-6.4 124.64-4.69ZM153.99-14.6L153.99-17.68Q152.86-17.53 151.4-16.28 149.93-15.04 148.59-13.26 147.25-11.47 146.32-9.4 145.39-7.32 145.39-5.57L145.39-5.57Q145.39-4.15 146.13-3.59 146.86-3.03 148.22-3.03L148.22-3.03Q149.69-3.03 151.08-3.39 152.47-3.76 153.86-4.17 155.26-4.59 156.65-4.96 158.04-5.32 159.5-5.32L159.5-5.32Q159.5-4.64 159.31-4.17 159.11-3.71 158.72-3.17L158.72-3.17Q156.18-1.95 153.5-0.95 150.81 0.05 147.88 0.05L147.88 0.05Q147 0.05 146.03-0.27 145.05-0.59 144.22-1.17 143.39-1.76 142.83-2.59 142.27-3.42 142.27-4.44L142.27-4.44Q142.27-6.64 142.9-8.72 143.54-10.79 144.66-12.65 145.78-14.5 147.37-16.06 148.96-17.63 150.81-18.8L150.81-18.8 150.81-18.85Q151.55-19.29 152.5-19.7 153.45-20.12 154.28-20.19 155.11-20.26 155.67-19.8 156.23-19.34 156.23-18.07L156.23-18.07Q156.23-17.48 156.13-16.53 156.04-15.58 155.6-15.19L155.6-15.19Q155.21-14.94 154.57-14.75L154.57-14.75Q154.28-14.65 153.99-14.6L153.99-14.6ZM159.5-3.17L159.5-3.17Q159.94-5.96 161.16-8.3 162.38-10.64 163.97-12.38 165.56-14.11 167.41-15.23 169.27-16.36 171.02-16.67 172.78-16.99 174.27-16.5 175.76-16.02 176.69-14.55L176.69-14.55Q176.69-13.43 176.18-12.4 175.66-11.38 175.05-10.35 174.44-9.33 173.93-8.25 173.42-7.18 173.42-5.96L173.42-5.96Q173.42-4.69 173.98-3.93 174.54-3.17 175.96-3.17L175.96-3.17Q177.13-3.17 178.23-3.52 179.33-3.86 180.45-3.86L180.45-3.86Q180.64-3.86 181.11-3.83 181.57-3.81 181.72-3.81L181.72-3.81Q181.13-2.98 180.2-2.39 179.28-1.81 178.25-1.39 177.23-0.98 176.13-0.78 175.03-0.59 174.1-0.59L174.1-0.59Q173.22-0.59 172.54-0.98 171.86-1.37 171.37-2 170.88-2.64 170.61-3.44 170.34-4.25 170.34-5.03L170.34-5.03Q169.61-4.2 168.75-3.3 167.9-2.39 166.95-1.66 166-0.93 164.9-0.44 163.8 0.05 162.63 0.05L162.63 0.05Q161.36 0.05 160.43-0.9 159.5-1.86 159.5-3.17ZM162.72-4.69L162.72-4.69Q162.72-4.3 162.75-3.81 162.77-3.32 163.36-3.17L163.36-3.17Q164.58-3.47 166.14-4.47 167.7-5.47 169.07-6.81 170.44-8.15 171.37-9.69 172.29-11.23 172.29-12.65L172.29-12.65Q172.29-12.74 172.27-12.96 172.25-13.18 172.25-13.28L172.25-13.28Q170.59-13.28 168.88-12.6 167.17-11.91 165.8-10.72 164.43-9.52 163.58-7.96 162.72-6.4 162.72-4.69ZM180.3-4.83L180.3-4.83Q180.3-7.28 181.69-9.62 183.08-11.96 185.23-13.77 187.38-15.58 189.97-16.67 192.56-17.77 194.9-17.77L194.9-17.77Q195.83-17.77 196.66-17.43 197.49-17.09 198.42-17.09L198.42-17.09 198.71-17.09Q198.95-17.63 199.66-18.99 200.37-20.36 201.17-21.88 201.98-23.39 202.71-24.73 203.44-26.07 203.79-26.61L203.79-26.61Q204.32-27.54 205.25-28.93 206.18-30.32 207.08-31.64 207.99-32.96 208.67-33.89 209.35-34.81 209.45-34.81L209.45-34.81 211.35-32.91Q211.35-32.81 210.99-32.03 210.62-31.25 210.04-30 209.45-28.76 208.69-27.25 207.94-25.73 207.16-24.22 206.37-22.71 205.67-21.31 204.96-19.92 204.42-18.99L204.42-18.99Q202.91-16.7 201.37-14.33 199.83-11.96 198.93-9.94 198.02-7.91 198.05-6.4 198.07-4.88 199.68-4.3L199.68-4.3Q202.61-4.83 204.08-4.74 205.54-4.64 205.91-4.22 206.28-3.81 205.79-3.25 205.3-2.69 204.25-2.25 203.2-1.81 201.83-1.66 200.47-1.51 199.1-1.95 197.73-2.39 196.61-3.56 195.49-4.74 194.9-6.93L194.9-6.93 187.33-0.63Q187.33-0.63 186.96-0.54 186.6-0.44 186.09-0.34 185.57-0.24 185.04-0.15 184.5-0.05 184.16 0L184.16 0 183.86 0Q182.74 0 182.03-0.42 181.33-0.83 180.93-1.49 180.54-2.15 180.42-3.03 180.3-3.91 180.3-4.83ZM183.47-5.37L183.47-5.37Q183.47-5.08 183.45-4.69 183.42-4.3 183.5-3.98 183.57-3.66 183.79-3.42 184.01-3.17 184.45-3.17L184.45-3.17Q185.08-3.17 185.99-3.64 186.89-4.1 187.77-4.74 188.65-5.37 189.41-6.01 190.16-6.64 190.5-6.93L190.5-6.93Q190.85-7.28 191.77-8.18 192.7-9.08 193.7-10.11 194.7-11.13 195.58-12.01 196.46-12.89 196.8-13.28L196.8-13.28 196.8-13.43Q196.8-13.53 196.83-13.55 196.85-13.57 196.85-13.62L196.85-13.62Q196.85-14.06 196.58-14.28 196.32-14.5 195.95-14.58 195.58-14.65 195.19-14.62 194.8-14.6 194.56-14.6L194.56-14.6Q192.8-14.6 190.85-13.87 188.89-13.13 187.26-11.89 185.62-10.64 184.55-8.96 183.47-7.28 183.47-5.37ZM205.88-2.54L205.88-2.54Q205.05-4.39 205.15-6.18 205.25-7.96 205.96-9.55 206.66-11.13 207.81-12.43 208.96-13.72 210.28-14.67 211.6-15.63 212.94-16.11 214.28-16.6 215.31-16.53 216.33-16.46 216.92-15.77 217.5-15.09 217.31-13.67L217.31-13.67Q217.31-11.77 216.11-10.35 214.92-8.94 213.48-7.81 212.04-6.69 210.84-5.79 209.64-4.88 209.64-4.1L209.64-4.1Q209.64-3.66 210.16-3.42 210.67-3.17 211.35-3.05 212.04-2.93 212.72-2.88 213.4-2.83 213.7-2.78L213.7-2.78Q218.29-3.76 220.58-3.98 222.88-4.2 223.46-3.93 224.05-3.66 223.24-3.1 222.44-2.54 220.78-1.93 219.12-1.32 216.92-0.83 214.72-0.34 212.57-0.27 210.42-0.2 208.59-0.68 206.76-1.17 205.88-2.54ZM214.43-13.67L214.43-13.67Q213.45-13.67 212.57-13.13 211.69-12.6 210.99-11.79 210.28-10.99 209.79-10.03 209.3-9.08 209.06-8.25L209.06-8.25Q209.15-8.2 209.2-8.2L209.2-8.2 209.35-8.2Q210.03-8.2 210.91-8.79 211.79-9.38 212.57-10.23 213.35-11.08 213.89-12.01 214.43-12.94 214.43-13.67ZM245.92 0.05L245.92 0.05Q244.99 0.05 244.24-0.29 243.48-0.63 242.99-1.27 242.5-1.9 242.31-2.71 242.11-3.52 242.36-4.44L242.36-4.44Q242.36-6.01 242.92-7.35 243.48-8.69 244.19-9.94 244.89-11.18 245.46-12.43 246.02-13.67 246.02-15.09L246.02-15.09Q244.94-15.09 243.72-14.4 242.5-13.72 241.26-12.6 240.01-11.47 238.82-10.08 237.62-8.69 236.57-7.3 235.52-5.91 234.76-4.64 234.01-3.37 233.62-2.54L233.62-2.54Q233.52-2.49 233.13-2.47 232.74-2.44 232.64-2.44L232.64-2.44Q231.86-2.05 231.69-2.47 231.52-2.88 231.69-3.76 231.86-4.64 232.25-5.74 232.64-6.84 233-7.84 233.37-8.84 233.57-9.5 233.76-10.16 233.62-10.16L233.62-10.16Q233.76-10.35 233.96-10.79 234.15-11.23 234.35-11.72 234.54-12.21 234.69-12.62 234.84-13.04 234.84-13.28L234.84-13.28Q234.84-13.72 234.52-13.84 234.2-13.96 233.91-13.96L233.91-13.96Q233.03-14.45 232.03-13.4 231.03-12.35 229.88-10.42 228.73-8.5 227.39-6.03 226.05-3.56 224.44-1.27L224.44-1.27Q223.31-1.27 222.73-1.56 222.14-1.86 222.14-3.03L222.14-3.03Q222.53-3.56 223.31-5.05 224.09-6.54 225.07-8.35 226.05-10.16 227.15-12.01 228.24-13.87 229.24-15.16 230.25-16.46 231.05-16.92 231.86-17.38 232.35-16.46L232.35-16.46Q233.18-16.99 234.18-17.38 235.18-17.77 236.2-17.77L236.2-17.77Q236.89-17.77 237.35-17.36 237.81-16.94 238.08-16.33 238.35-15.72 238.5-15.06 238.64-14.4 238.64-13.92L238.64-13.92Q239.18-14.26 240.43-15.11 241.67-15.97 243.11-16.85 244.55-17.72 245.94-18.38 247.34-19.04 248.21-19.04L248.21-19.04Q249-19.04 249.56-18.48 250.12-17.92 250.12-17.09L250.12-17.09Q248.36-12.79 247.36-10.21 246.36-7.62 246.04-6.18 245.72-4.74 246.04-4.13 246.36-3.52 247.19-3.17L247.19-3.17Q248.51-3.17 249.73-3.61 250.95-4.05 252.15-4.59 253.34-5.13 254.56-5.57 255.78-6.01 257.15-6.01L257.15-6.01Q257.15-5.47 256.88-5 256.61-4.54 256.08-4.3L256.08-4.3Q255.69-4.05 254.68-3.54 253.68-3.03 252.51-2.47 251.34-1.9 250.29-1.37 249.24-0.83 248.8-0.63L248.8-0.63Q247.82-0.2 247.31-0.07 246.8 0.05 245.92 0.05ZM252.51 14.75L252.51 14.75Q254.07 12.21 256.12 10.23 258.17 8.25 260.35 6.49 262.52 4.74 264.67 3.08 266.82 1.42 268.65-0.49 270.48-2.39 271.8-4.71 273.11-7.03 273.6-10.11L273.6-10.11Q273.6-10.21 273.58-10.42 273.55-10.64 273.55-10.74L273.55-10.74Q272.43-9.42 270.84-7.76 269.26-6.1 267.43-4.64 265.6-3.17 263.59-2.2 261.59-1.22 259.69-1.22L259.69-1.22Q259.2-1.22 258.44-1.29 257.68-1.37 256.95-1.61 256.22-1.86 255.68-2.29 255.15-2.73 255.15-3.47L255.15-3.47Q255.15-4.1 255.49-5.42 255.83-6.74 256.42-8.35 257-9.96 257.73-11.62 258.47-13.28 259.3-14.65 260.13-16.02 260.93-16.89 261.74-17.77 262.42-17.77L262.42-17.77Q263.1-17.77 263.59-17.48 264.08-17.19 264.08-16.5L264.08-16.5Q264.08-15.28 263.2-14.06 262.32-12.84 261.3-11.45 260.27-10.06 259.39-8.45 258.51-6.84 258.51-4.79L258.51-4.79Q261.74-4.79 264.33-6.13 266.91-7.47 269.01-9.47 271.11-11.47 272.72-13.82 274.34-16.16 275.58-18.16 276.83-20.17 277.73-21.51 278.63-22.85 279.27-22.85L279.27-22.85Q280.19-22.85 280.37-22.29 280.54-21.73 280.54-20.9L280.54-20.9Q280.1-19.38 279.32-17.36 278.53-15.33 277.73-13.11 276.92-10.89 276.26-8.69 275.6-6.49 275.41-4.69L275.41-4.69Q275.41-4.64 275.43-4.54 275.46-4.44 275.46-4.39L275.46-4.39Q276.34-4.69 277.12-5.42 277.9-6.15 278.66-6.91 279.41-7.67 280.19-8.28 280.98-8.89 281.81-8.89L281.81-8.89Q281.85-8.89 282.17-8.2 282.49-7.52 282.15-6.54L282.15-6.54Q281.71-6.2 280.56-5.37 279.41-4.54 278.14-3.64 276.87-2.73 275.75-1.88 274.63-1.03 274.19-0.59L274.19-0.59Q273.51 0.1 272.77 1.37 272.04 2.64 271.31 4.22 270.58 5.81 269.87 7.57 269.16 9.33 268.48 11.01 267.79 12.7 267.13 14.14 266.47 15.58 265.94 16.5L265.94 16.5Q265.69 16.89 264.94 18.04 264.18 19.19 263.28 20.51 262.37 21.83 261.52 23.02 260.66 24.22 260.22 24.71L260.22 24.71Q260.03 24.95 259.15 25.85 258.27 26.76 257.17 27.86 256.07 28.96 254.97 30.03 253.88 31.1 253.29 31.64L253.29 31.64Q252.7 31.98 251.73 32.5 250.75 33.01 249.7 33.35 248.65 33.69 247.65 33.79 246.65 33.89 246.01 33.37 245.38 32.86 245.26 31.67 245.14 30.47 245.8 28.3 246.45 26.12 248.07 22.8 249.68 19.48 252.51 14.75ZM267.84 4.25L267.84 4.25Q267.74 4.25 267.52 4.32 267.3 4.39 267.21 4.44L267.21 4.44Q267.11 4.54 266.77 4.79 266.43 5.03 266.01 5.32 265.6 5.62 265.23 5.91 264.86 6.2 264.72 6.35L264.72 6.35Q263.35 7.32 261.59 9.11 259.83 10.89 257.95 13.06 256.07 15.23 254.27 17.65 252.46 20.07 251.02 22.29 249.58 24.51 248.7 26.37 247.82 28.22 247.77 29.35 247.72 30.47 248.7 30.66 249.68 30.86 252.02 29.74L252.02 29.74Q252.51 29.3 253.41 28.44 254.32 27.59 255.22 26.68 256.12 25.78 256.85 25.02 257.59 24.27 257.73 24.07L257.73 24.07Q257.98 23.73 258.51 23 259.05 22.27 259.69 21.34 260.32 20.41 261.01 19.38 261.69 18.36 262.3 17.41 262.91 16.46 263.37 15.72 263.84 14.99 264.03 14.6L264.03 14.6Q264.47 13.82 265.13 12.38 265.79 10.94 266.38 9.4 266.96 7.86 267.4 6.45 267.84 5.03 267.84 4.25Z" opacity="1" transform="matrix(1,0,0,1,0,0)" fill="black" class="wordmark-text-0" id="SvgjsPath1048" stroke-width="7" stroke="black" stroke-linejoin="round"></path></svg></g></svg></g></svg></g></svg></g></svg></g></svg></g></svg></g></mask><g transform="matrix(1,0,0,1,39.55200000000002,82.21949078445675)"><svg viewBox="0 0 316.41599999999994 82.7610184310865" height="82.7610184310865" width="316.41599999999994"><g><svg viewBox="0 0 316.41599999999994 82.7610184310865" height="82.7610184310865" width="316.41599999999994"><g><svg viewBox="0 0 316.41599999999994 82.7610184310865" height="82.7610184310865" width="316.41599999999994"><g><svg viewBox="0 0 316.41599999999994 82.7610184310865" height="82.7610184310865" width="316.41599999999994"><g id="textblocktransform"><svg viewBox="0 0 316.41599999999994 82.7610184310865" height="82.7610184310865" width="316.41599999999994" id="textblock"><g><svg viewBox="0 0 316.41599999999994 82.7610184310865" height="82.7610184310865" width="316.41599999999994"><g transform="matrix(1,0,0,1,0,0)"><svg width="316.41599999999994" viewBox="-3.76 -38.81 290.08515151515144 76.61612901440802" height="82.7610184310865" data-palette-color="#332885"><path d="M6.54-1.22L6.54-1.22Q6.54-2.34 7.03-3.59 7.52-4.83 7.91-5.71L7.91-5.71Q8.25-6.4 8.98-7.84 9.72-9.28 10.64-11.08 11.57-12.89 12.62-14.89 13.67-16.89 14.6-18.7 15.53-20.51 16.28-21.95 17.04-23.39 17.38-24.07L17.38-24.07Q17.43-24.12 17.6-24.41 17.77-24.71 17.99-25 18.21-25.29 18.41-25.56 18.6-25.83 18.65-25.93L18.65-25.93Q18.7-26.03 18.6-26.12 18.51-26.22 18.51-26.32L18.51-26.32Q16.41-26.07 14.14-25.68 11.87-25.29 9.64-24.78 7.42-24.27 5.37-23.61 3.32-22.95 1.66-22.12L1.66-22.12Q1.12-22.12 0.68-22.31 0.24-22.51 0.24-23.1L0.24-23.1 0.24-23.24Q0.24-23.29 0.29-23.39L0.29-23.39Q0.39-23.63 0.61-24.15 0.83-24.66 0.93-24.71L0.93-24.71 5.37-26.61 35.11-34.18Q35.64-32.81 35.03-32.01 34.42-31.2 33.11-30.69 31.79-30.18 30.05-29.81 28.32-29.44 26.59-28.93 24.85-28.42 23.39-27.56 21.92-26.71 21.19-25.29L21.19-25.29Q18.02-18.99 14.67-12.74 11.33-6.49 8.54 0L8.54 0Q8.5 0 8.37 0.02 8.25 0.05 8.2 0.05L8.2 0.05Q7.57 0.05 7.06-0.24 6.54-0.54 6.54-1.22ZM25.19-3.17L25.19-3.17Q25.63-5.96 26.85-8.3 28.07-10.64 29.66-12.38 31.25-14.11 33.1-15.23 34.96-16.36 36.72-16.67 38.47-16.99 39.96-16.5 41.45-16.02 42.38-14.55L42.38-14.55Q42.38-13.43 41.87-12.4 41.35-11.38 40.74-10.35 40.13-9.33 39.62-8.25 39.11-7.18 39.11-5.96L39.11-5.96Q39.11-4.69 39.67-3.93 40.23-3.17 41.65-3.17L41.65-3.17Q42.82-3.17 43.92-3.52 45.02-3.86 46.14-3.86L46.14-3.86Q46.34-3.86 46.8-3.83 47.26-3.81 47.41-3.81L47.41-3.81Q46.82-2.98 45.9-2.39 44.97-1.81 43.94-1.39 42.92-0.98 41.82-0.78 40.72-0.59 39.79-0.59L39.79-0.59Q38.91-0.59 38.23-0.98 37.55-1.37 37.06-2 36.57-2.64 36.3-3.44 36.03-4.25 36.03-5.03L36.03-5.03Q35.3-4.2 34.45-3.3 33.59-2.39 32.64-1.66 31.69-0.93 30.59-0.44 29.49 0.05 28.32 0.05L28.32 0.05Q27.05 0.05 26.12-0.9 25.19-1.86 25.19-3.17ZM28.42-4.69L28.42-4.69Q28.42-4.3 28.44-3.81 28.46-3.32 29.05-3.17L29.05-3.17Q30.27-3.47 31.83-4.47 33.4-5.47 34.76-6.81 36.13-8.15 37.06-9.69 37.99-11.23 37.99-12.65L37.99-12.65Q37.99-12.74 37.96-12.96 37.94-13.18 37.94-13.28L37.94-13.28Q36.28-13.28 34.57-12.6 32.86-11.91 31.49-10.72 30.12-9.52 29.27-7.96 28.42-6.4 28.42-4.69ZM45.65-3.17L45.65-3.17Q45.65-3.86 45.8-4.37 45.94-4.88 46.33-5.71L46.33-5.71Q46.67-6.2 47.58-7.57 48.48-8.94 49.48-10.45 50.48-11.96 51.39-13.31 52.29-14.65 52.63-15.19L52.63-15.19Q53.07-15.82 53.32-15.87 53.56-15.92 54.24-15.92L54.24-15.92Q54.68-15.92 55.2-15.87 55.71-15.82 55.85-15.19L55.85-15.19Q55.17-13.53 54.02-12.04 52.88-10.55 51.78-9.08 50.68-7.62 49.85-6.08 49.02-4.54 49.02-2.78L49.02-2.78Q49.21-2.78 49.63-2.73 50.04-2.69 50.53-2.64 51.02-2.59 51.44-2.54 51.85-2.49 52.05-2.54L52.05-2.54Q52.34-2.59 53.05-2.76 53.75-2.93 54.56-3.13 55.37-3.32 56.1-3.52 56.83-3.71 57.12-3.81L57.12-3.81Q57.12-3.71 57.15-3.49 57.17-3.27 57.17-3.17L57.17-3.17Q57.17-2.2 56.27-1.56 55.37-0.93 54.17-0.56 52.97-0.2 51.73-0.07 50.48 0.05 49.8 0.05L49.8 0.05Q49.07 0.05 48.31-0.12 47.55-0.29 46.97-0.68 46.38-1.07 46.02-1.68 45.65-2.29 45.65-3.17ZM59.86-31.79L59.86-31.79Q60.49-31.79 61.03-31.74 61.57-31.69 61.96-31.49 62.35-31.3 62.59-30.91 62.84-30.52 62.84-29.83L62.84-29.83Q62.84-29.54 62.84-29.2 62.84-28.86 62.76-28.54 62.69-28.22 62.5-28 62.3-27.78 61.86-27.78L61.86-27.78Q61.18-27.78 60.76-28.27 60.35-28.76 60.15-29.42 59.96-30.08 59.91-30.76 59.86-31.45 59.86-31.79ZM57.76-2.54L57.76-2.54Q56.93-4.39 57.02-6.18 57.12-7.96 57.83-9.55 58.54-11.13 59.68-12.43 60.83-13.72 62.15-14.67 63.47-15.63 64.81-16.11 66.15-16.6 67.18-16.53 68.21-16.46 68.79-15.77 69.38-15.09 69.18-13.67L69.18-13.67Q69.18-11.77 67.99-10.35 66.79-8.94 65.35-7.81 63.91-6.69 62.71-5.79 61.52-4.88 61.52-4.1L61.52-4.1Q61.52-3.66 62.03-3.42 62.54-3.17 63.22-3.05 63.91-2.93 64.59-2.88 65.28-2.83 65.57-2.78L65.57-2.78Q70.16-3.76 72.45-3.98 74.75-4.2 75.33-3.93 75.92-3.66 75.11-3.1 74.31-2.54 72.65-1.93 70.99-1.32 68.79-0.83 66.59-0.34 64.45-0.27 62.3-0.2 60.47-0.68 58.64-1.17 57.76-2.54ZM66.3-13.67L66.3-13.67Q65.32-13.67 64.45-13.13 63.57-12.6 62.86-11.79 62.15-10.99 61.66-10.03 61.17-9.08 60.93-8.25L60.93-8.25Q61.03-8.2 61.08-8.2L61.08-8.2 61.22-8.2Q61.91-8.2 62.79-8.79 63.66-9.38 64.45-10.23 65.23-11.08 65.76-12.01 66.3-12.94 66.3-13.67ZM73.96-4.44L73.96-4.44Q73.96-5.08 74.28-5.88 74.6-6.69 75.28-6.93L75.28-6.93Q75.38-6.98 75.55-7.01 75.72-7.03 75.87-7.08L75.87-7.08Q76.06-7.13 76.21-7.13L76.21-7.13 76.21-4.44Q76.5-4.74 77.11-5.52 77.72-6.3 78.38-7.2 79.04-8.11 79.6-8.94 80.17-9.77 80.36-10.16L80.36-10.16 91.74-32.32Q91.74-32.32 92.01-32.62 92.28-32.91 92.64-33.03 93.01-33.15 93.45-32.91 93.89-32.67 94.28-31.64L94.28-31.64 87.34-17.68 87.34-17.09Q88.71-16.89 89.88-16.53 91.05-16.16 91.91-15.48 92.76-14.79 93.25-13.79 93.74-12.79 93.74-11.38L93.74-11.38Q93.74-8.98 92.49-6.91 91.25-4.83 89.3-3.3 87.34-1.76 84.98-0.85 82.61 0.05 80.41 0.05L80.41 0.05Q79.43 0.05 78.31-0.22 77.19-0.49 76.24-1.05 75.28-1.61 74.62-2.47 73.96-3.32 73.96-4.44ZM87.88-14.01L87.88-14.01Q87.2-14.01 86.39-13.38 85.59-12.74 84.8-11.74 84.02-10.74 83.29-9.5 82.56-8.25 82-7.03 81.44-5.81 81.09-4.74 80.75-3.66 80.75-3.03L80.75-3.03Q82.12-3.03 83.83-3.66 85.54-4.3 87.03-5.35 88.52-6.4 89.52-7.79 90.52-9.18 90.52-10.69L90.52-10.69Q90.52-12.01 89.98-13.01 89.44-14.01 87.88-14.01ZM121.42-3.17L121.42-3.17Q121.86-5.96 123.08-8.3 124.3-10.64 125.89-12.38 127.48-14.11 129.33-15.23 131.19-16.36 132.94-16.67 134.7-16.99 136.19-16.5 137.68-16.02 138.61-14.55L138.61-14.55Q138.61-13.43 138.1-12.4 137.58-11.38 136.97-10.35 136.36-9.33 135.85-8.25 135.34-7.18 135.34-5.96L135.34-5.96Q135.34-4.69 135.9-3.93 136.46-3.17 137.88-3.17L137.88-3.17Q139.05-3.17 140.15-3.52 141.24-3.86 142.37-3.86L142.37-3.86Q142.56-3.86 143.03-3.83 143.49-3.81 143.64-3.81L143.64-3.81Q143.05-2.98 142.12-2.39 141.2-1.81 140.17-1.39 139.15-0.98 138.05-0.78 136.95-0.59 136.02-0.59L136.02-0.59Q135.14-0.59 134.46-0.98 133.77-1.37 133.29-2 132.8-2.64 132.53-3.44 132.26-4.25 132.26-5.03L132.26-5.03Q131.53-4.2 130.67-3.3 129.82-2.39 128.87-1.66 127.91-0.93 126.82-0.44 125.72 0.05 124.55 0.05L124.55 0.05Q123.28 0.05 122.35-0.9 121.42-1.86 121.42-3.17ZM124.64-4.69L124.64-4.69Q124.64-4.3 124.67-3.81 124.69-3.32 125.28-3.17L125.28-3.17Q126.5-3.47 128.06-4.47 129.62-5.47 130.99-6.81 132.36-8.15 133.29-9.69 134.21-11.23 134.21-12.65L134.21-12.65Q134.21-12.74 134.19-12.96 134.16-13.18 134.16-13.28L134.16-13.28Q132.5-13.28 130.8-12.6 129.09-11.91 127.72-10.72 126.35-9.52 125.5-7.96 124.64-6.4 124.64-4.69ZM153.99-14.6L153.99-17.68Q152.86-17.53 151.4-16.28 149.93-15.04 148.59-13.26 147.25-11.47 146.32-9.4 145.39-7.32 145.39-5.57L145.39-5.57Q145.39-4.15 146.13-3.59 146.86-3.03 148.22-3.03L148.22-3.03Q149.69-3.03 151.08-3.39 152.47-3.76 153.86-4.17 155.26-4.59 156.65-4.96 158.04-5.32 159.5-5.32L159.5-5.32Q159.5-4.64 159.31-4.17 159.11-3.71 158.72-3.17L158.72-3.17Q156.18-1.95 153.5-0.95 150.81 0.05 147.88 0.05L147.88 0.05Q147 0.05 146.03-0.27 145.05-0.59 144.22-1.17 143.39-1.76 142.83-2.59 142.27-3.42 142.27-4.44L142.27-4.44Q142.27-6.64 142.9-8.72 143.54-10.79 144.66-12.65 145.78-14.5 147.37-16.06 148.96-17.63 150.81-18.8L150.81-18.8 150.81-18.85Q151.55-19.29 152.5-19.7 153.45-20.12 154.28-20.19 155.11-20.26 155.67-19.8 156.23-19.34 156.23-18.07L156.23-18.07Q156.23-17.48 156.13-16.53 156.04-15.58 155.6-15.19L155.6-15.19Q155.21-14.94 154.57-14.75L154.57-14.75Q154.28-14.65 153.99-14.6L153.99-14.6ZM159.5-3.17L159.5-3.17Q159.94-5.96 161.16-8.3 162.38-10.64 163.97-12.38 165.56-14.11 167.41-15.23 169.27-16.36 171.02-16.67 172.78-16.99 174.27-16.5 175.76-16.02 176.69-14.55L176.69-14.55Q176.69-13.43 176.18-12.4 175.66-11.38 175.05-10.35 174.44-9.33 173.93-8.25 173.42-7.18 173.42-5.96L173.42-5.96Q173.42-4.69 173.98-3.93 174.54-3.17 175.96-3.17L175.96-3.17Q177.13-3.17 178.23-3.52 179.33-3.86 180.45-3.86L180.45-3.86Q180.64-3.86 181.11-3.83 181.57-3.81 181.72-3.81L181.72-3.81Q181.13-2.98 180.2-2.39 179.28-1.81 178.25-1.39 177.23-0.98 176.13-0.78 175.03-0.59 174.1-0.59L174.1-0.59Q173.22-0.59 172.54-0.98 171.86-1.37 171.37-2 170.88-2.64 170.61-3.44 170.34-4.25 170.34-5.03L170.34-5.03Q169.61-4.2 168.75-3.3 167.9-2.39 166.95-1.66 166-0.93 164.9-0.44 163.8 0.05 162.63 0.05L162.63 0.05Q161.36 0.05 160.43-0.9 159.5-1.86 159.5-3.17ZM162.72-4.69L162.72-4.69Q162.72-4.3 162.75-3.81 162.77-3.32 163.36-3.17L163.36-3.17Q164.58-3.47 166.14-4.47 167.7-5.47 169.07-6.81 170.44-8.15 171.37-9.69 172.29-11.23 172.29-12.65L172.29-12.65Q172.29-12.74 172.27-12.96 172.25-13.18 172.25-13.28L172.25-13.28Q170.59-13.28 168.88-12.6 167.17-11.91 165.8-10.72 164.43-9.52 163.58-7.96 162.72-6.4 162.72-4.69ZM180.3-4.83L180.3-4.83Q180.3-7.28 181.69-9.62 183.08-11.96 185.23-13.77 187.38-15.58 189.97-16.67 192.56-17.77 194.9-17.77L194.9-17.77Q195.83-17.77 196.66-17.43 197.49-17.09 198.42-17.09L198.42-17.09 198.71-17.09Q198.95-17.63 199.66-18.99 200.37-20.36 201.17-21.88 201.98-23.39 202.71-24.73 203.44-26.07 203.79-26.61L203.79-26.61Q204.32-27.54 205.25-28.93 206.18-30.32 207.08-31.64 207.99-32.96 208.67-33.89 209.35-34.81 209.45-34.81L209.45-34.81 211.35-32.91Q211.35-32.81 210.99-32.03 210.62-31.25 210.04-30 209.45-28.76 208.69-27.25 207.94-25.73 207.16-24.22 206.37-22.71 205.67-21.31 204.96-19.92 204.42-18.99L204.42-18.99Q202.91-16.7 201.37-14.33 199.83-11.96 198.93-9.94 198.02-7.91 198.05-6.4 198.07-4.88 199.68-4.3L199.68-4.3Q202.61-4.83 204.08-4.74 205.54-4.64 205.91-4.22 206.28-3.81 205.79-3.25 205.3-2.69 204.25-2.25 203.2-1.81 201.83-1.66 200.47-1.51 199.1-1.95 197.73-2.39 196.61-3.56 195.49-4.74 194.9-6.93L194.9-6.93 187.33-0.63Q187.33-0.63 186.96-0.54 186.6-0.44 186.09-0.34 185.57-0.24 185.04-0.15 184.5-0.05 184.16 0L184.16 0 183.86 0Q182.74 0 182.03-0.42 181.33-0.83 180.93-1.49 180.54-2.15 180.42-3.03 180.3-3.91 180.3-4.83ZM183.47-5.37L183.47-5.37Q183.47-5.08 183.45-4.69 183.42-4.3 183.5-3.98 183.57-3.66 183.79-3.42 184.01-3.17 184.45-3.17L184.45-3.17Q185.08-3.17 185.99-3.64 186.89-4.1 187.77-4.74 188.65-5.37 189.41-6.01 190.16-6.64 190.5-6.93L190.5-6.93Q190.85-7.28 191.77-8.18 192.7-9.08 193.7-10.11 194.7-11.13 195.58-12.01 196.46-12.89 196.8-13.28L196.8-13.28 196.8-13.43Q196.8-13.53 196.83-13.55 196.85-13.57 196.85-13.62L196.85-13.62Q196.85-14.06 196.58-14.28 196.32-14.5 195.95-14.58 195.58-14.65 195.19-14.62 194.8-14.6 194.56-14.6L194.56-14.6Q192.8-14.6 190.85-13.87 188.89-13.13 187.26-11.89 185.62-10.64 184.55-8.96 183.47-7.28 183.47-5.37ZM205.88-2.54L205.88-2.54Q205.05-4.39 205.15-6.18 205.25-7.96 205.96-9.55 206.66-11.13 207.81-12.43 208.96-13.72 210.28-14.67 211.6-15.63 212.94-16.11 214.28-16.6 215.31-16.53 216.33-16.46 216.92-15.77 217.5-15.09 217.31-13.67L217.31-13.67Q217.31-11.77 216.11-10.35 214.92-8.94 213.48-7.81 212.04-6.69 210.84-5.79 209.64-4.88 209.64-4.1L209.64-4.1Q209.64-3.66 210.16-3.42 210.67-3.17 211.35-3.05 212.04-2.93 212.72-2.88 213.4-2.83 213.7-2.78L213.7-2.78Q218.29-3.76 220.58-3.98 222.88-4.2 223.46-3.93 224.05-3.66 223.24-3.1 222.44-2.54 220.78-1.93 219.12-1.32 216.92-0.83 214.72-0.34 212.57-0.27 210.42-0.2 208.59-0.68 206.76-1.17 205.88-2.54ZM214.43-13.67L214.43-13.67Q213.45-13.67 212.57-13.13 211.69-12.6 210.99-11.79 210.28-10.99 209.79-10.03 209.3-9.08 209.06-8.25L209.06-8.25Q209.15-8.2 209.2-8.2L209.2-8.2 209.35-8.2Q210.03-8.2 210.91-8.79 211.79-9.38 212.57-10.23 213.35-11.08 213.89-12.01 214.43-12.94 214.43-13.67ZM245.92 0.05L245.92 0.05Q244.99 0.05 244.24-0.29 243.48-0.63 242.99-1.27 242.5-1.9 242.31-2.71 242.11-3.52 242.36-4.44L242.36-4.44Q242.36-6.01 242.92-7.35 243.48-8.69 244.19-9.94 244.89-11.18 245.46-12.43 246.02-13.67 246.02-15.09L246.02-15.09Q244.94-15.09 243.72-14.4 242.5-13.72 241.26-12.6 240.01-11.47 238.82-10.08 237.62-8.69 236.57-7.3 235.52-5.91 234.76-4.64 234.01-3.37 233.62-2.54L233.62-2.54Q233.52-2.49 233.13-2.47 232.74-2.44 232.64-2.44L232.64-2.44Q231.86-2.05 231.69-2.47 231.52-2.88 231.69-3.76 231.86-4.64 232.25-5.74 232.64-6.84 233-7.84 233.37-8.84 233.57-9.5 233.76-10.16 233.62-10.16L233.62-10.16Q233.76-10.35 233.96-10.79 234.15-11.23 234.35-11.72 234.54-12.21 234.69-12.62 234.84-13.04 234.84-13.28L234.84-13.28Q234.84-13.72 234.52-13.84 234.2-13.96 233.91-13.96L233.91-13.96Q233.03-14.45 232.03-13.4 231.03-12.35 229.88-10.42 228.73-8.5 227.39-6.03 226.05-3.56 224.44-1.27L224.44-1.27Q223.31-1.27 222.73-1.56 222.14-1.86 222.14-3.03L222.14-3.03Q222.53-3.56 223.31-5.05 224.09-6.54 225.07-8.35 226.05-10.16 227.15-12.01 228.24-13.87 229.24-15.16 230.25-16.46 231.05-16.92 231.86-17.38 232.35-16.46L232.35-16.46Q233.18-16.99 234.18-17.38 235.18-17.77 236.2-17.77L236.2-17.77Q236.89-17.77 237.35-17.36 237.81-16.94 238.08-16.33 238.35-15.72 238.5-15.06 238.64-14.4 238.64-13.92L238.64-13.92Q239.18-14.26 240.43-15.11 241.67-15.97 243.11-16.85 244.55-17.72 245.94-18.38 247.34-19.04 248.21-19.04L248.21-19.04Q249-19.04 249.56-18.48 250.12-17.92 250.12-17.09L250.12-17.09Q248.36-12.79 247.36-10.21 246.36-7.62 246.04-6.18 245.72-4.74 246.04-4.13 246.36-3.52 247.19-3.17L247.19-3.17Q248.51-3.17 249.73-3.61 250.95-4.05 252.15-4.59 253.34-5.13 254.56-5.57 255.78-6.01 257.15-6.01L257.15-6.01Q257.15-5.47 256.88-5 256.61-4.54 256.08-4.3L256.08-4.3Q255.69-4.05 254.68-3.54 253.68-3.03 252.51-2.47 251.34-1.9 250.29-1.37 249.24-0.83 248.8-0.63L248.8-0.63Q247.82-0.2 247.31-0.07 246.8 0.05 245.92 0.05ZM252.51 14.75L252.51 14.75Q254.07 12.21 256.12 10.23 258.17 8.25 260.35 6.49 262.52 4.74 264.67 3.08 266.82 1.42 268.65-0.49 270.48-2.39 271.8-4.71 273.11-7.03 273.6-10.11L273.6-10.11Q273.6-10.21 273.58-10.42 273.55-10.64 273.55-10.74L273.55-10.74Q272.43-9.42 270.84-7.76 269.26-6.1 267.43-4.64 265.6-3.17 263.59-2.2 261.59-1.22 259.69-1.22L259.69-1.22Q259.2-1.22 258.44-1.29 257.68-1.37 256.95-1.61 256.22-1.86 255.68-2.29 255.15-2.73 255.15-3.47L255.15-3.47Q255.15-4.1 255.49-5.42 255.83-6.74 256.42-8.35 257-9.96 257.73-11.62 258.47-13.28 259.3-14.65 260.13-16.02 260.93-16.89 261.74-17.77 262.42-17.77L262.42-17.77Q263.1-17.77 263.59-17.48 264.08-17.19 264.08-16.5L264.08-16.5Q264.08-15.28 263.2-14.06 262.32-12.84 261.3-11.45 260.27-10.06 259.39-8.45 258.51-6.84 258.51-4.79L258.51-4.79Q261.74-4.79 264.33-6.13 266.91-7.47 269.01-9.47 271.11-11.47 272.72-13.82 274.34-16.16 275.58-18.16 276.83-20.17 277.73-21.51 278.63-22.85 279.27-22.85L279.27-22.85Q280.19-22.85 280.37-22.29 280.54-21.73 280.54-20.9L280.54-20.9Q280.1-19.38 279.32-17.36 278.53-15.33 277.73-13.11 276.92-10.89 276.26-8.69 275.6-6.49 275.41-4.69L275.41-4.69Q275.41-4.64 275.43-4.54 275.46-4.44 275.46-4.39L275.46-4.39Q276.34-4.69 277.12-5.42 277.9-6.15 278.66-6.91 279.41-7.67 280.19-8.28 280.98-8.89 281.81-8.89L281.81-8.89Q281.85-8.89 282.17-8.2 282.49-7.52 282.15-6.54L282.15-6.54Q281.71-6.2 280.56-5.37 279.41-4.54 278.14-3.64 276.87-2.73 275.75-1.88 274.63-1.03 274.19-0.59L274.19-0.59Q273.51 0.1 272.77 1.37 272.04 2.64 271.31 4.22 270.58 5.81 269.87 7.57 269.16 9.33 268.48 11.01 267.79 12.7 267.13 14.14 266.47 15.58 265.94 16.5L265.94 16.5Q265.69 16.89 264.94 18.04 264.18 19.19 263.28 20.51 262.37 21.83 261.52 23.02 260.66 24.22 260.22 24.71L260.22 24.71Q260.03 24.95 259.15 25.85 258.27 26.76 257.17 27.86 256.07 28.96 254.97 30.03 253.88 31.1 253.29 31.64L253.29 31.64Q252.7 31.98 251.73 32.5 250.75 33.01 249.7 33.35 248.65 33.69 247.65 33.79 246.65 33.89 246.01 33.37 245.38 32.86 245.26 31.67 245.14 30.47 245.8 28.3 246.45 26.12 248.07 22.8 249.68 19.48 252.51 14.75ZM267.84 4.25L267.84 4.25Q267.74 4.25 267.52 4.32 267.3 4.39 267.21 4.44L267.21 4.44Q267.11 4.54 266.77 4.79 266.43 5.03 266.01 5.32 265.6 5.62 265.23 5.91 264.86 6.2 264.72 6.35L264.72 6.35Q263.35 7.32 261.59 9.11 259.83 10.89 257.95 13.06 256.07 15.23 254.27 17.65 252.46 20.07 251.02 22.29 249.58 24.51 248.7 26.37 247.82 28.22 247.77 29.35 247.72 30.47 248.7 30.66 249.68 30.86 252.02 29.74L252.02 29.74Q252.51 29.3 253.41 28.44 254.32 27.59 255.22 26.68 256.12 25.78 256.85 25.02 257.59 24.27 257.73 24.07L257.73 24.07Q257.98 23.73 258.51 23 259.05 22.27 259.69 21.34 260.32 20.41 261.01 19.38 261.69 18.36 262.3 17.41 262.91 16.46 263.37 15.72 263.84 14.99 264.03 14.6L264.03 14.6Q264.47 13.82 265.13 12.38 265.79 10.94 266.38 9.4 266.96 7.86 267.4 6.45 267.84 5.03 267.84 4.25Z" opacity="1" transform="matrix(1,0,0,1,0,0)" fill="#332885" class="wordmark-text-0" data-fill-palette-color="primary" id="text-0"></path></svg></g></svg></g></svg></g></svg></g></svg></g></svg></g></svg></g><g mask="url(#adce3921-e32d-4ee5-8389-986fb1528165)"><g transform="matrix(4.44404168554599, 0, 0, 4.44404168554599, 39.99652016311737, 1)"><svg xmlns="http://www.w3.org/2000/svg" xmlns:xlink="http://www.w3.org/1999/xlink" version="1.1" x="0" y="0" viewBox="14.5 22.424999999999997 70.99999999999999 55.175" style="enable-background:new 0 0 100 100;" xml:space="preserve" height="55.175" width="70.99999999999999" class="icon-none" data-fill-palette-color="accent" id="none"><path d="M84.9 38.9L50.4 22.5c-0.3-0.1-0.6-0.1-0.9 0L15.1 38.9c-0.3 0.2-0.6 0.5-0.6 0.9s0.2 0.7 0.6 0.9l12 5.7v6.8 4c0 7.5 10.1 13.4 22.9 13.4 6.4 0 12.1-1.5 16.3-4v4.2c-1.4 0.4-2.5 1.8-2.5 3.3 0 1.9 1.6 3.5 3.5 3.5s3.5-1.6 3.5-3.5c0-1.6-1.1-2.9-2.5-3.3v-5.5c2.9-2.2 4.6-5 4.6-8v-4-6.8l12-5.7c0.3-0.2 0.6-0.5 0.6-0.9S85.3 39.1 84.9 38.9zM68.8 74.1c0 0.8-0.7 1.5-1.5 1.5s-1.5-0.7-1.5-1.5 0.7-1.5 1.5-1.5S68.8 73.3 68.8 74.1zM49.6 57.1c0.1 0.1 0.3 0.1 0.4 0.1s0.3 0 0.4-0.1l15.9-7.5v10.7c-3.9 2.6-9.8 4.4-16.3 4.4-11.5 0-20.9-5.1-20.9-11.4v-5.8L49.6 57.1zM50 68.6c-10.3 0-18.8-4.1-20.6-9.4 3.7 4.4 11.4 7.4 20.6 7.4 6.4 0 12.1-1.5 16.3-4v1.6C62.4 66.9 56.5 68.6 50 68.6zM68.3 62.6v-1.4c0.9-0.7 1.6-1.4 2.3-2.2C70.2 60.3 69.4 61.5 68.3 62.6zM70.9 53.2c0 1.9-0.9 3.8-2.6 5.4v-10l2.6-1.2V53.2zM67.3 46.9l-16.8-8.4c-0.5-0.2-1.1 0-1.3 0.5-0.2 0.5 0 1.1 0.5 1.3L65 48l-15 7.1L17.8 39.8 50 24.5l32.2 15.3L67.3 46.9z" fill="#332885" data-fill-palette-color="accent"></path></svg></g></g></svg></g><defs></defs></svg><rect width="395.52" height="247.2" fill="none" stroke="none" visibility="hidden"></rect></g></svg></g></svg>